<svg width="1920" height="240" viewBox="0 0 1920 240" xmlns="http://www.w3.org/2000/svg"><rect width="1920" height="240" fill="#a19195"/><path d="M 0,240 C 0,240 0,80 0,80 C 141.6871794871795,82.02051282051282 283.374358974359,84.04102564102564 361,92 C 438.625641025641,99.95897435897436 452.18974358974356,113.85641025641026 534,103 C 615.8102564102564,92.14358974358974 765.866666666667,56.53333333333333 934,50 C 1102.133333333333,43.46666666666667 1288.3435897435897,66.0102564102564 1381,73 C 1473.6564102564103,79.9897435897436 1472.7589743589745,71.42564102564103 1547,70 C 1621.2410256410255,68.57435897435897 1770.6205128205129,74.28717948717949 1920,80 C 1920,80 1920,240 1920,240 Z" fill="#3c4477" opacity="0.19999999999999998"/><path d="M 0,240 C 0,240 0,160 0,160 C 119.12820512820514,148.1769230769231 238.25641025641028,136.35384615384618 332,142 C 425.7435897435897,147.64615384615382 494.1025641025641,170.76153846153844 622,174 C 749.8974358974359,177.23846153846156 937.3333333333335,160.60000000000002 1073,151 C 1208.6666666666665,141.39999999999998 1292.5641025641025,138.83846153846153 1396,145 C 1499.4358974358975,151.16153846153847 1622.4102564102564,166.04615384615383 1713,170 C 1803.5897435897436,173.95384615384617 1861.7948717948718,166.97692307692307 1920,160 C 1920,160 1920,240 1920,240 Z" fill="#3c4477" opacity="0.39999999999999997"/></svg>